<svg width="126" height="16" viewBox="0 0 126 16" fill="none" xmlns="http://www.w3.org/2000/svg"><path d="M57.593 2.731c.04.099.02.148-.039.188-.108.04-.296.207-.375.02C56.164 1.193 54.833.74 52.89.758c-1.676.02-2.879 1.203-2.879 2.574 0 1.37 1.095 2.198 2.386 2.632 1.331.453 2.574.73 3.609 1.183 1.282.561 2.573 1.804 2.573 4.17 0 2.986-2.77 4.74-5.797 4.544-2.613-.168-4.694-2.504-4.486-2.859.059-.108.039-.06.108-.079.493-.079 1.913 2.02 4.338 2.13 2.633.118 4.497-1.39 4.536-3.264.06-2.326-3.195-2.917-5.157-3.627-1.035-.375-3.382-1.222-3.382-3.943 0-2.386 2.11-3.983 4.132-4.042 2.74-.088 4.003.927 4.752 2.553M124.986 2.731c.04.099.02.148-.039.188-.109.04-.296.207-.375.02-1.016-1.745-2.347-2.199-4.289-2.18-1.676.02-2.879 1.203-2.879 2.574 0 1.37 1.094 2.198 2.386 2.632 1.331.453 2.563.73 3.599 1.183 1.282.561 2.573 1.804 2.573 4.17 0 2.986-2.77 4.74-5.797 4.544-2.613-.168-4.694-2.504-4.487-2.859.059-.108.04-.06.109-.079.493-.079 1.913 2.02 4.338 2.13 2.633.118 4.496-1.39 4.536-3.264.059-2.326-3.195-2.917-5.157-3.627-1.035-.375-3.382-1.222-3.382-3.943 0-2.386 2.11-3.983 4.131-4.042 2.741-.088 4.003.927 4.753 2.553M12.425 3.076c.079.099.02.207-.08.247a.728.728 0 0 0-.127.079s-.247.02-.316-.08C10.995 1.786 9.437.77 7.278.859c-2.14.08-4.713 1.538-4.713 7.463 0 5.619 3.047 6.801 5.038 6.801 2.653 0 3.964-1.35 5.187-3.903.04-.08.187-.168.226-.138.04.02.227.138.267.138.04 0 .098.148.04.266-.938 2.671-3.107 4.495-5.808 4.495-3.61 0-7.336-2.445-7.336-7.63C.179 3.165 3.995.16 7.13.218c2.238.04 3.48.601 5.285 2.839M25.736 7.995c0 7.068 3.628 7.334 4.861 7.334 1.47 0 4.733-.808 4.733-7.215 0-6.408-3.155-7.334-4.693-7.334-1.539 0-4.901.473-4.901 7.215m11.91-.148c0 5.018-3.302 8.025-7.049 8.025-3.747 0-7.178-3.253-7.178-7.571 0-5.244 3.737-8.152 7.03-8.152 3.55 0 7.198 2.927 7.198 7.689M68.784 1.036V.435H82.55v.6H77.5c-.847 0-.788.1-.808.81v13.79H74.69V1.845c0-.75 0-.79-.867-.81h-5.039ZM94.43.464h10.393v.562h-7.474c-.621 0-.946.168-.946.828v5.372c0 .188-.01.267.138.267h3.954v.502H96.62c-.109 0-.217.04-.217.168v5.53c0 .808.157 1.262.966 1.262h7.454v.62c-.099.02-9.712 0-10.392 0V.466Z" fill="#121212"></path></svg>