<svg id="logo_the_sting" data-name="logo / the sting" xmlns="http://www.w3.org/2000/svg" width="161.292" height="23.828" viewBox="0 0 161.292 23.828">
  <defs>
    <style>
      .cls-1 {
        fill: #18181b;
      }
    </style>
  </defs>
  <g id="Group" transform="translate(0 0)">
    <path id="Fill_1" data-name="Fill 1" class="cls-1" d="M8.259,23.828C3.932,23.828.076,20.573,0,16.86L0,16.7l0-.527H4.366v.477a2.35,2.35,0,0,0,.116.713,3.813,3.813,0,0,0,.84,1.287,4.175,4.175,0,0,0,2.937,1.208c2.333,0,3.783-1.156,3.783-3.016,0-1.486-1.019-2.406-3.115-2.814-.78-.16-1.736-.406-2.494-.641C2.677,12.263.61,9.779.61,6.39.61,2.747,3.765,0,7.951,0,12.24,0,15.6,2.938,15.6,6.69v.477H11.277V6.69A3.1,3.1,0,0,0,7.951,3.882c-1.924,0-3.167,1.044-3.167,2.659,0,.929.326,2.247,3.14,2.967.67.171,1.346.325,2,.472l.427.1c3.779.886,5.861,3.289,5.861,6.765C16.21,20.228,13.424,23.828,8.259,23.828Z" transform="translate(68.408 0)"/>
    <path id="Fill_3" data-name="Fill 3" class="cls-1" d="M19.1,23.1H15.587L4.421,7.522V23.1H0V0H4.178l10.5,14.8V0H19.1Z" transform="translate(117.057 0.365)"/>
    <path id="Fill_5" data-name="Fill 5" class="cls-1" d="M0,23.1H4.569V0H0Z" transform="translate(107.115 0.366)"/>
    <path id="Fill_7" data-name="Fill 7" class="cls-1" d="M16.691,23.1H12.2V13.394H4.505V23.1H0V0H4.505V9.4H12.2V0h4.5Z" transform="translate(20.132 0.365)"/>
    <path id="Fill_8" data-name="Fill 8" class="cls-1" d="M10.667,23.1H6.1V3.994H0V0H16.764V3.994h-6.1Z" transform="translate(0 0.365)"/>
    <path id="Fill_9" data-name="Fill 9" class="cls-1" d="M10.662,23.1H6.1V3.994H0V0H16.762V3.994h-6.1Z" transform="translate(86.082 0.365)"/>
    <path id="Fill_10" data-name="Fill 10" class="cls-1" d="M14.791,23.1H0V0H14.791V4.042H4.5v5.23h9.252v4.007H4.5v5.737h10.3Z" transform="translate(42.192 0.365)"/>
    <path id="Fill_11" data-name="Fill 11" class="cls-1" d="M16.678,8.478c-.369-4.349-5.246-4.37-5.787-4.359v.006C7.128,4.166,4.6,7.283,4.6,11.913c0,4.708,2.617,7.869,6.508,7.869a5.433,5.433,0,0,0,5.622-4.641H11.8V11.208h9.39V13.3c0,6.2-4.141,10.527-10.074,10.527C4.673,23.828,0,18.818,0,11.913,0,5.086,4.512.113,10.759.006V0l.114,0h.018c8.763,0,10.064,6.874,10.148,8.4v.079Z" transform="translate(140.106 0)"/>
  </g>
</svg>
