<svg width="158" height="24" xmlns="http://www.w3.org/2000/svg" xmlns:xlink="http://www.w3.org/1999/xlink">
  <defs>
    <path id="a" d="M0 23.828h157.292V0H0z"/>
  </defs>
  <g fill="none" fill-rule="evenodd">
    <path d="M75.667 23.828c-4.327 0-8.183-3.255-8.26-6.968l.004-.16-.003-.527h4.366v.477c0 .23.037.464.116.712.201.501.482.93.84 1.287a4.175 4.175 0 0 0 2.937 1.208c2.333 0 3.783-1.155 3.783-3.016 0-1.486-1.02-2.406-3.115-2.814-.78-.16-1.736-.405-2.494-.64-3.756-1.123-5.823-3.608-5.823-6.997 0-3.643 3.155-6.39 7.34-6.39 4.29 0 7.65 2.938 7.65 6.69v.477h-4.323V6.69c0-1.548-1.492-2.807-3.326-2.807-1.924 0-3.167 1.044-3.167 2.658 0 .93.326 2.247 3.14 2.967.67.171 1.345.325 1.999.472l.426.097c3.78.886 5.86 3.288 5.86 6.764 0 3.387-2.786 6.987-7.95 6.987zm57.489-.365h-3.512L118.478 7.887v15.576h-4.42V.365h4.177l10.498 14.803V.365h4.423z" fill="#FFF"/>
    <mask id="b" fill="#fff">
      <use xlink:href="#a"/>
    </mask>
    <path fill="#FFF" mask="url(#b)" d="M105.115 23.462h4.57V.366h-4.57zm-68.293.001h-4.495v-9.705h-7.69v9.705h-4.505V.365h4.505v9.403h7.69V.365h4.495zm-26.155 0h-4.57V4.36H0V.365h16.764v3.994h-6.097zm85.078 0h-4.567V4.36h-6.096V.365h16.763v3.994h-6.1zm-39.762 0h-14.79V.365h14.79v4.042H45.688v5.23h9.252v4.007h-9.252v5.737h10.295zm96.8-14.985c-.368-4.348-5.246-4.37-5.787-4.359v.006c-3.762.04-6.286 3.158-6.286 7.788 0 4.708 2.617 7.87 6.508 7.87 2.948 0 5.025-1.726 5.622-4.64h-4.938v-3.935h9.39V13.3c0 6.198-4.14 10.527-10.074 10.527-6.44 0-11.112-5.01-11.112-11.915 0-6.827 4.512-11.8 10.758-11.907V0l.114.002h.018v.001c8.763.001 10.064 6.874 10.149 8.395v.08h-4.362z"/>
  </g>
</svg>
