<svg width="32" height="32" viewBox="0 0 32 32" xmlns="http://www.w3.org/2000/svg" stroke-width="0.75" stroke-linejoin="round"><g fill="none" fill-rule="evenodd"><path fill="#FFF" d="M0 0h32v32H0z"></path><path d="M25.423 8.524c.138.156.033.337-.137.403-.142.059-.142.059-.203.126-.07.071-.425.036-.524-.126-1.535-2.445-4.114-4.051-7.717-3.926-3.567.13-8.053 2.437-8.053 11.827 0 8.91 5.284 10.79 8.6 10.79 4.445 0 6.612-2.143 8.667-6.177.052-.126.317-.266.374-.23.07.02.382.23.458.23.07 0 .17.238.07.448C25.396 26.106 21.763 29 17.262 29 11.245 29 5 25.124 5 16.905 5 8.785 11.395 3.92 16.596 4c3.745.067 5.833.982 8.827 4.523z" fill="#333"></path></g></svg>