<svg width="24" height="24" viewBox="0 0 24 24" xmlns="http://www.w3.org/2000/svg" stroke-width="1" aria-label="Wishlist"><path d="M12.009 6.287c-.07-.08-.138-.161-.207-.243-.354-.426-.7-.867-1.096-1.244-.48-.45-.997-.873-1.565-1.176-1.818-.973-3.602-.808-5.202.496-1.556 1.267-2.211 2.966-1.835 5.033.236 1.313.918 2.378 1.792 3.306 2.054 2.177 4.126 4.344 6.198 6.52.656.69 1.233 1.305 1.906 2.021.673-.716 1.25-1.332 1.906-2.02 2.063-2.177 4.135-4.335 6.198-6.521.874-.928 1.556-1.993 1.792-3.306.376-2.076-.28-3.775-1.835-5.033-1.61-1.304-3.384-1.47-5.202-.496-.56.303-1.084.726-1.556 1.176-.4.373-.738.81-1.087 1.231-.047.058-.117.143-.207.256z" stroke="currentColor" fill="none"></path></svg>