<svg width="32" height="32" viewBox="0 0 32 32" xmlns="http://www.w3.org/2000/svg">
    <g fill="none" fill-rule="evenodd">
        <path fill="currentColor" d="M0 0h32v32H0z" />
        <path
            d="M16.17 29.23c-4.804 0-9.086-3.615-9.17-7.738l.003-.178L7 20.729h4.848v.53c0 .256.042.515.129.79.224.557.536 1.033.932 1.43a4.635 4.635 0 0 0 3.262 1.341c2.59 0 4.2-1.283 4.2-3.349 0-1.65-1.131-2.672-3.458-3.124a31.318 31.318 0 0 1-2.769-.712c-4.171-1.247-6.467-4.006-6.467-7.768 0-4.046 3.504-7.096 8.152-7.096 4.763 0 8.495 3.262 8.495 7.428v.53h-4.802v-.53c0-1.719-1.657-3.117-3.693-3.117-2.136 0-3.517 1.16-3.517 2.952 0 1.032.362 2.495 3.487 3.294.744.19 1.494.36 2.22.524l.473.108C22.69 14.944 25 17.61 25 21.47c0 3.761-3.094 7.758-8.83 7.758z"
            fill="#FFF" />
    </g>
</svg>